<svg viewBox="-32 0 512 512.001" xmlns="http://www.w3.org/2000/svg">
    <path
        d="m167.636719 206.730469h-9.101563v9.097656c0 22.742187 18.492188 41.242187 41.230469 41.242187h9.101563v-9.101562c0-22.738281-18.5-41.238281-41.230469-41.238281zm0 0" />
    <path
        d="m424.617188 195.210938-190.125-190.800782c-2.8125-2.820312-6.628907-4.40624975-10.613282-4.410156-.003906 0-.007812 0-.011718 0-3.980469 0-7.792969 1.578125-10.605469 4.394531l-190.046875 190.042969c-14.96875 14.972656-23.214844 34.878906-23.214844 56.050781v214.378907c0 26.335937 21.382812 47.132812 47.132812 47.132812h161.734376v-64.269531h-57.300782c-39.28125 0-71.230468-31.949219-71.230468-71.230469v-24.097656c0-8.28125 6.710937-15 15-15h24.101562c39.269531 0 71.230469 31.957031 71.230469 71.230468v9.097657h18.199219v-130.660157h-9.101563c-39.277344 0-71.230469-31.960937-71.230469-71.242187v-24.097656c0-8.28125 6.710938-15 15-15h24.101563c39.269531 0 71.230469 31.960937 71.230469 71.238281v105.5h18.199218v-9.097656c0-39.28125 31.960938-71.242188 71.230469-71.242188h24.101563c8.289062 0 15 6.722656 15 15v24.101563c0 39.28125-31.953126 71.238281-71.230469 71.238281h-57.300781v128.53125h161.730468c25.992188 0 47.136719-21.144531 47.136719-47.132812v-213.707032c0-21.117187-8.210937-40.988281-23.117187-55.949218zm0 0" />
    <path
        d="m337.398438 312.230469v-9.101563h-9.101563c-22.730469 0-41.230469 18.5-41.230469 41.242188v9.097656h9.101563c22.738281 0 41.230469-18.5 41.230469-41.238281zm0 0" />
    <path
        d="m110.335938 367.398438v9.101562c0 22.738281 18.492187 41.230469 41.230468 41.230469h9.101563v-9.101563c0-22.730468-18.5-41.230468-41.230469-41.230468zm0 0" />
</svg>