<?xml version="1.0" encoding="UTF-8"?>
<svg xmlns="http://www.w3.org/2000/svg" viewBox="0 0 24 24">
    <g id="Layer_2" data-name="Layer 2">
        <path
            d="M17,8a1,1,0,0,1,0-2h2.721l.2-3.062a.989.989,0,0,1,1-.936,1.017,1.017,0,0,1,1,1.065l-.258,4a1,1,0,0,1-1,.936Z" />
        <path
            d="M20.659,7.751H17a.75.75,0,0,1,0-1.5h2.956l.212-3.3a.741.741,0,0,1,.8-.7.751.751,0,0,1,.7.8l-.258,4A.75.75,0,0,1,20.659,7.751Z" />
        <path d="M2,13a1,1,0,0,1-1-1A11,11,0,0,1,21.528,6.5a1,1,0,1,1-1.732,1A9,9,0,0,0,3,12,1,1,0,0,1,2,13Z" />
        <path
            d="M2,12.75A.75.75,0,0,1,1.25,12,10.751,10.751,0,0,1,21.312,6.625a.75.75,0,0,1-1.3.75A9.251,9.251,0,0,0,2.75,12,.75.75,0,0,1,2,12.75Z" />
        <path
            d="M12,23a11.039,11.039,0,0,1-9.528-5.5,1,1,0,0,1,1.732-1A9,9,0,0,0,21,12a1,1,0,0,1,2,0A11.013,11.013,0,0,1,12,23Z" />
        <path
            d="M12,22.75a10.792,10.792,0,0,1-9.312-5.375.75.75,0,0,1,1.3-.75A9.251,9.251,0,0,0,21.25,12a.75.75,0,0,1,1.5,0A10.762,10.762,0,0,1,12,22.75Z" />
        <path
            d="M3.021,22a1,1,0,0,1-.936-1.063l.258-4a1,1,0,0,1,1-.936H7a1,1,0,0,1,0,2H4.279l-.2,3.062a1,1,0,0,1-1,.936Z" />
        <path
            d="M3.084,21.747l-.049,0a.751.751,0,0,1-.7-.8l.258-4a.75.75,0,0,1,.748-.7H7a.75.75,0,0,1,0,1.5H4.044l-.212,3.3A.75.75,0,0,1,3.084,21.747Z" />
        <path
            d="M12,23a11.039,11.039,0,0,1-9.528-5.5,1,1,0,0,1,1.732-1A9,9,0,0,0,21,12a1,1,0,0,1,2,0A11.013,11.013,0,0,1,12,23Z" />
        <path
            d="M12,22.75a10.792,10.792,0,0,1-9.312-5.375.75.75,0,0,1,1.3-.75A9.251,9.251,0,0,0,21.25,12a.75.75,0,0,1,1.5,0A10.762,10.762,0,0,1,12,22.75Z" />
        <path d="M2,13a1,1,0,0,1-1-1A11,11,0,0,1,21.528,6.5a1,1,0,1,1-1.732,1A9,9,0,0,0,3,12,1,1,0,0,1,2,13Z" />
        <path
            d="M2,12.75A.75.75,0,0,1,1.25,12,10.751,10.751,0,0,1,21.312,6.625a.75.75,0,0,1-1.3.75A9.251,9.251,0,0,0,2.75,12,.75.75,0,0,1,2,12.75Z" />
    </g>
</svg>